<svg xmlns="http://www.w3.org/2000/svg" xmlns:xlink="http://www.w3.org/1999/xlink" width="1366" zoomAndPan="magnify" viewBox="0 0 1024.5 576" height="768" preserveAspectRatio="xMidYMid meet" version="1.0"><defs><g/><clipPath id="f2b0e5a060"><path d="M 0 0.140625 L 1024 0.140625 L 1024 575.859375 L 0 575.859375 Z M 0 0.140625 " clip-rule="nonzero"/></clipPath><clipPath id="17bf2d4bd2"><path d="M 425.519531 256.746094 L 442 256.746094 L 442 303 L 425.519531 303 Z M 425.519531 256.746094 " clip-rule="nonzero"/></clipPath><clipPath id="574f2b0587"><path d="M 444 265 L 461 265 L 461 312.21875 L 444 312.21875 Z M 444 265 " clip-rule="nonzero"/></clipPath><clipPath id="373453d47e"><path d="M 466 258 L 469.75 258 L 469.75 262 L 466 262 Z M 466 258 " clip-rule="nonzero"/></clipPath><clipPath id="1d7a770a51"><rect x="0" width="46" y="0" height="10"/></clipPath><clipPath id="4560bfce08"><path d="M 47 0.691406 L 57 0.691406 L 57 18 L 47 18 Z M 47 0.691406 " clip-rule="nonzero"/></clipPath><clipPath id="4f0b11a1b7"><rect x="0" width="70" y="0" height="24"/></clipPath></defs><g clip-path="url(#f2b0e5a060)"><path fill="#ffffff" d="M 0 0.140625 L 1024 0.140625 L 1024 575.859375 L 0 575.859375 Z M 0 0.140625 " fill-opacity="1" fill-rule="nonzero"/><path fill="#000000" d="M 0 0.140625 L 1024 0.140625 L 1024 575.859375 L 0 575.859375 Z M 0 0.140625 " fill-opacity="1" fill-rule="nonzero"/></g><g clip-path="url(#17bf2d4bd2)"><path fill="#fff2ec" d="M 425.535156 282.753906 L 425.535156 276.980469 C 426.707031 276.917969 427.589844 276.742188 428.179688 276.453125 C 428.773438 276.164062 429.289062 275.679688 429.722656 274.996094 C 430.15625 274.316406 430.449219 273.460938 430.613281 272.433594 C 430.738281 271.664062 430.804688 270.324219 430.804688 268.417969 C 430.804688 265.304688 430.949219 263.136719 431.238281 261.910156 C 431.527344 260.683594 432.046875 259.695312 432.800781 258.949219 C 433.554688 258.203125 434.652344 257.613281 436.097656 257.183594 C 437.074219 256.894531 438.613281 256.75 440.714844 256.75 L 441.992188 256.75 L 441.992188 262.5 C 440.210938 262.5 439.066406 262.597656 438.5625 262.800781 C 438.058594 263 437.683594 263.304688 437.445312 263.714844 C 437.203125 264.121094 437.082031 264.824219 437.082031 265.820312 C 437.082031 266.828125 437.011719 268.746094 436.867188 271.566406 C 436.785156 273.15625 436.578125 274.441406 436.242188 275.429688 C 435.902344 276.414062 435.476562 277.230469 434.953125 277.871094 C 434.433594 278.511719 433.632812 279.179688 432.558594 279.867188 C 433.507812 280.414062 434.28125 281.050781 434.882812 281.78125 C 435.484375 282.511719 435.945312 283.398438 436.265625 284.4375 C 436.585938 285.480469 436.792969 286.878906 436.890625 288.625 C 437.003906 291.289062 437.058594 292.988281 437.058594 293.726562 C 437.058594 294.785156 437.1875 295.523438 437.445312 295.9375 C 437.699219 296.355469 438.089844 296.671875 438.609375 296.890625 C 439.132812 297.105469 440.257812 297.214844 441.992188 297.214844 L 441.992188 302.988281 L 440.714844 302.988281 C 438.550781 302.988281 436.890625 302.816406 435.734375 302.472656 C 434.582031 302.125 433.605469 301.550781 432.8125 300.75 C 432.019531 299.949219 431.484375 298.957031 431.214844 297.777344 C 430.941406 296.601562 430.804688 294.742188 430.804688 292.210938 C 430.804688 289.257812 430.675781 287.34375 430.417969 286.460938 C 430.066406 285.175781 429.53125 284.257812 428.820312 283.707031 C 428.105469 283.152344 427.011719 282.835938 425.535156 282.753906 " fill-opacity="1" fill-rule="nonzero"/></g><path fill="#dd622d" d="M 462.035156 268.726562 L 458.269531 268.726562 L 458.269531 264.960938 L 462.035156 264.960938 L 462.035156 268.726562 " fill-opacity="1" fill-rule="nonzero"/><path fill="#dd622d" d="M 461.144531 276.257812 L 458.269531 276.257812 L 458.269531 273.378906 L 461.144531 273.378906 L 461.144531 276.257812 " fill-opacity="1" fill-rule="nonzero"/><g clip-path="url(#574f2b0587)"><path fill="#dd622d" d="M 450.191406 271.605469 L 450.191406 268.726562 L 453.066406 268.726562 L 453.066406 271.605469 Z M 457.507812 285.054688 C 456.785156 284.5 456.25 283.582031 455.894531 282.300781 C 455.703125 281.574219 455.585938 280.1875 455.550781 278.140625 L 453.066406 278.140625 L 453.066406 274.375 L 455.496094 274.375 C 455.433594 272.921875 455.308594 271.792969 455.113281 270.980469 C 454.832031 269.800781 454.300781 268.808594 453.515625 267.996094 C 452.730469 267.1875 451.757812 266.613281 450.605469 266.277344 C 449.449219 265.941406 447.789062 265.773438 445.625 265.773438 L 444.347656 265.773438 L 444.347656 271.523438 C 446.160156 271.523438 447.328125 271.628906 447.847656 271.847656 C 448.371094 272.0625 448.730469 272.371094 448.933594 272.773438 C 449.132812 273.175781 449.242188 273.976562 449.257812 275.179688 C 449.335938 278.996094 449.464844 281.464844 449.640625 282.589844 C 449.914062 284.222656 450.425781 285.570312 451.179688 286.628906 C 451.726562 287.367188 452.59375 288.121094 453.78125 288.890625 C 452.863281 289.421875 452.113281 290.035156 451.53125 290.730469 C 450.945312 291.429688 450.476562 292.28125 450.121094 293.28125 C 449.769531 294.285156 449.554688 295.621094 449.472656 297.289062 C 449.34375 300.046875 449.277344 301.914062 449.269531 302.894531 C 449.261719 303.871094 449.132812 304.566406 448.882812 304.972656 C 448.632812 305.382812 448.246094 305.695312 447.714844 305.914062 C 447.1875 306.128906 446.066406 306.238281 444.347656 306.238281 L 444.347656 312.011719 L 445.625 312.011719 C 447.726562 312.011719 449.265625 311.867188 450.242188 311.578125 C 451.703125 311.144531 452.808594 310.554688 453.5625 309.808594 C 454.316406 309.0625 454.832031 308.074219 455.113281 306.839844 C 455.394531 305.601562 455.535156 303.429688 455.535156 300.320312 C 455.535156 298.425781 455.601562 297.09375 455.726562 296.324219 C 455.90625 295.300781 456.207031 294.445312 456.628906 293.761719 C 457.054688 293.082031 457.5625 292.597656 458.15625 292.308594 C 458.75 292.019531 459.632812 291.84375 460.804688 291.777344 L 460.804688 286.003906 C 459.328125 285.925781 458.230469 285.605469 457.507812 285.054688 " fill-opacity="1" fill-rule="nonzero"/></g><g clip-path="url(#373453d47e)"><path fill="#dd622d" d="M 469.375 261.414062 L 466.5 261.414062 L 466.5 258.535156 L 469.375 258.535156 L 469.375 261.414062 " fill-opacity="1" fill-rule="nonzero"/></g><path fill="#dd622d" d="M 454.949219 264.960938 L 449.578125 264.960938 L 449.578125 259.589844 L 454.949219 259.589844 L 454.949219 264.960938 " fill-opacity="1" fill-rule="nonzero"/><g transform="matrix(1, 0, 0, 1, 527, 293)"><g clip-path="url(#1d7a770a51)"><g fill="#fff2ec" fill-opacity="1"><g transform="translate(1.148639, 6.870071)"><g><path d="M 0.578125 0 L 0.578125 -3.9375 L 2.09375 -3.9375 C 2.476562 -3.9375 2.78125 -3.84375 3 -3.65625 C 3.226562 -3.46875 3.34375 -3.210938 3.34375 -2.890625 C 3.34375 -2.703125 3.296875 -2.535156 3.203125 -2.390625 C 3.117188 -2.242188 2.992188 -2.128906 2.828125 -2.046875 C 3.035156 -1.960938 3.191406 -1.835938 3.296875 -1.671875 C 3.398438 -1.515625 3.453125 -1.328125 3.453125 -1.109375 C 3.453125 -0.765625 3.335938 -0.492188 3.109375 -0.296875 C 2.878906 -0.0976562 2.566406 0 2.171875 0 Z M 1.0625 -0.46875 L 2.15625 -0.46875 C 2.414062 -0.46875 2.613281 -0.523438 2.75 -0.640625 C 2.882812 -0.753906 2.953125 -0.914062 2.953125 -1.125 C 2.953125 -1.332031 2.878906 -1.492188 2.734375 -1.609375 C 2.597656 -1.722656 2.40625 -1.78125 2.15625 -1.78125 L 1.0625 -1.78125 Z M 1.0625 -2.234375 L 2.09375 -2.234375 C 2.332031 -2.234375 2.515625 -2.285156 2.640625 -2.390625 C 2.773438 -2.503906 2.84375 -2.660156 2.84375 -2.859375 C 2.84375 -3.054688 2.773438 -3.207031 2.640625 -3.3125 C 2.515625 -3.414062 2.332031 -3.46875 2.09375 -3.46875 L 1.0625 -3.46875 Z M 1.0625 -2.234375 "/></g></g></g><g fill="#fff2ec" fill-opacity="1"><g transform="translate(4.92329, 6.870071)"><g><path d="M 1.6875 0.078125 C 1.300781 0.078125 1 -0.046875 0.78125 -0.296875 C 0.570312 -0.546875 0.46875 -0.878906 0.46875 -1.296875 L 0.46875 -2.921875 L 0.9375 -2.921875 L 0.9375 -1.34375 C 0.9375 -1.050781 1.007812 -0.816406 1.15625 -0.640625 C 1.300781 -0.460938 1.5 -0.375 1.75 -0.375 C 2.019531 -0.375 2.238281 -0.472656 2.40625 -0.671875 C 2.582031 -0.867188 2.671875 -1.128906 2.671875 -1.453125 L 2.671875 -2.921875 L 3.140625 -2.921875 L 3.140625 0 L 2.75 0 L 2.703125 -0.421875 C 2.578125 -0.253906 2.425781 -0.128906 2.25 -0.046875 C 2.070312 0.0351562 1.882812 0.078125 1.6875 0.078125 Z M 1.6875 0.078125 "/></g></g></g><g fill="#fff2ec" fill-opacity="1"><g transform="translate(8.591058, 6.870071)"><g><path d="M 0.515625 0 L 0.515625 -2.921875 L 1 -2.921875 L 1 0 Z M 0.375 -3.765625 C 0.375 -3.878906 0.40625 -3.96875 0.46875 -4.03125 C 0.539062 -4.101562 0.640625 -4.140625 0.765625 -4.140625 C 0.878906 -4.140625 0.96875 -4.101562 1.03125 -4.03125 C 1.101562 -3.96875 1.140625 -3.878906 1.140625 -3.765625 C 1.140625 -3.660156 1.101562 -3.570312 1.03125 -3.5 C 0.96875 -3.4375 0.878906 -3.40625 0.765625 -3.40625 C 0.640625 -3.40625 0.539062 -3.4375 0.46875 -3.5 C 0.40625 -3.570312 0.375 -3.660156 0.375 -3.765625 Z M 0.375 -3.765625 "/></g></g></g><g fill="#fff2ec" fill-opacity="1"><g transform="translate(10.109918, 6.870071)"><g><path d="M 0.515625 0 L 0.515625 -4.15625 L 1 -4.15625 L 1 0 Z M 0.515625 0 "/></g></g></g><g fill="#fff2ec" fill-opacity="1"><g transform="translate(11.628778, 6.870071)"><g><path d="M 1.78125 0 C 1.457031 0 1.207031 -0.0859375 1.03125 -0.265625 C 0.851562 -0.453125 0.765625 -0.710938 0.765625 -1.046875 L 0.765625 -2.484375 L 0.15625 -2.484375 L 0.15625 -2.921875 L 0.4375 -2.921875 C 0.570312 -2.921875 0.664062 -2.941406 0.71875 -2.984375 C 0.769531 -3.023438 0.804688 -3.113281 0.828125 -3.25 L 0.875 -3.640625 L 1.234375 -3.640625 L 1.234375 -2.921875 L 2.1875 -2.921875 L 2.1875 -2.484375 L 1.234375 -2.484375 L 1.234375 -1.078125 C 1.234375 -0.660156 1.425781 -0.453125 1.8125 -0.453125 L 2.21875 -0.453125 L 2.21875 0 Z M 1.78125 0 "/></g></g></g><g fill="#fff2ec" fill-opacity="1"><g transform="translate(14.12646, 6.870071)"><g/></g></g><g fill="#fff2ec" fill-opacity="1"><g transform="translate(15.521562, 6.870071)"><g><path d="M 2.109375 0.078125 C 1.867188 0.078125 1.648438 0.03125 1.453125 -0.0625 C 1.265625 -0.15625 1.101562 -0.285156 0.96875 -0.453125 L 0.90625 0 L 0.515625 0 L 0.515625 -4.15625 L 1 -4.15625 L 1 -2.5 C 1.125 -2.65625 1.28125 -2.773438 1.46875 -2.859375 C 1.664062 -2.953125 1.878906 -3 2.109375 -3 C 2.398438 -3 2.65625 -2.929688 2.875 -2.796875 C 3.101562 -2.660156 3.28125 -2.476562 3.40625 -2.25 C 3.53125 -2.019531 3.59375 -1.757812 3.59375 -1.46875 C 3.59375 -1.164062 3.53125 -0.898438 3.40625 -0.671875 C 3.28125 -0.441406 3.101562 -0.257812 2.875 -0.125 C 2.65625 0.0078125 2.398438 0.078125 2.109375 0.078125 Z M 0.984375 -1.46875 C 0.984375 -1.25 1.023438 -1.054688 1.109375 -0.890625 C 1.203125 -0.734375 1.328125 -0.609375 1.484375 -0.515625 C 1.648438 -0.421875 1.835938 -0.375 2.046875 -0.375 C 2.265625 -0.375 2.453125 -0.421875 2.609375 -0.515625 C 2.773438 -0.609375 2.898438 -0.734375 2.984375 -0.890625 C 3.078125 -1.054688 3.125 -1.25 3.125 -1.46875 C 3.125 -1.675781 3.078125 -1.859375 2.984375 -2.015625 C 2.898438 -2.179688 2.773438 -2.3125 2.609375 -2.40625 C 2.453125 -2.5 2.265625 -2.546875 2.046875 -2.546875 C 1.835938 -2.546875 1.648438 -2.5 1.484375 -2.40625 C 1.328125 -2.3125 1.203125 -2.179688 1.109375 -2.015625 C 1.023438 -1.859375 0.984375 -1.675781 0.984375 -1.46875 Z M 0.984375 -1.46875 "/></g></g></g><g fill="#fff2ec" fill-opacity="1"><g transform="translate(19.290586, 6.870071)"><g><path d="M 0.421875 1.125 L 0.421875 0.6875 L 0.703125 0.6875 C 0.890625 0.6875 1.023438 0.65625 1.109375 0.59375 C 1.203125 0.539062 1.28125 0.4375 1.34375 0.28125 L 1.46875 -0.0625 L 0.09375 -2.921875 L 0.625 -2.921875 L 1.28125 -1.546875 L 1.703125 -0.640625 L 2.0625 -1.546875 L 2.609375 -2.921875 L 3.109375 -2.921875 L 1.765625 0.453125 C 1.703125 0.628906 1.625 0.765625 1.53125 0.859375 C 1.445312 0.960938 1.34375 1.03125 1.21875 1.0625 C 1.09375 1.101562 0.9375 1.125 0.75 1.125 Z M 0.421875 1.125 "/></g></g></g><g fill="#fff2ec" fill-opacity="1"><g transform="translate(22.36206, 6.870071)"><g/></g></g><g fill="#fff2ec" fill-opacity="1"><g transform="translate(23.633403, 6.870071)"><g><path d="M 1.671875 0 L 0.09375 -3.9375 L 0.625 -3.9375 L 1.28125 -2.28125 L 1.890625 -0.71875 L 2.515625 -2.28125 L 3.171875 -3.9375 L 3.6875 -3.9375 L 2.125 0 Z M 1.671875 0 "/></g></g></g><g fill="#fff2ec" fill-opacity="1"><g transform="translate(27.059278, 6.870071)"><g><path d="M 1.484375 0.046875 C 1.128906 0.046875 0.851562 -0.03125 0.65625 -0.1875 C 0.457031 -0.351562 0.359375 -0.570312 0.359375 -0.84375 C 0.359375 -1.113281 0.445312 -1.328125 0.625 -1.484375 C 0.8125 -1.640625 1.054688 -1.71875 1.359375 -1.71875 L 2.546875 -1.71875 L 2.546875 -1.828125 C 2.546875 -2.054688 2.472656 -2.234375 2.328125 -2.359375 C 2.191406 -2.484375 2 -2.546875 1.75 -2.546875 C 1.5625 -2.546875 1.398438 -2.503906 1.265625 -2.421875 C 1.128906 -2.335938 1.035156 -2.226562 0.984375 -2.09375 L 0.5 -2.09375 C 0.570312 -2.375 0.71875 -2.59375 0.9375 -2.75 C 1.15625 -2.914062 1.425781 -3 1.75 -3 C 2 -3 2.21875 -2.945312 2.40625 -2.84375 C 2.601562 -2.75 2.753906 -2.613281 2.859375 -2.4375 C 2.972656 -2.269531 3.03125 -2.078125 3.03125 -1.859375 L 3.03125 0 L 2.640625 0 L 2.59375 -0.40625 C 2.320312 -0.101562 1.953125 0.046875 1.484375 0.046875 Z M 0.828125 -0.84375 C 0.828125 -0.707031 0.882812 -0.59375 1 -0.5 C 1.125 -0.414062 1.289062 -0.375 1.5 -0.375 C 1.695312 -0.375 1.875 -0.410156 2.03125 -0.484375 C 2.1875 -0.566406 2.3125 -0.675781 2.40625 -0.8125 C 2.5 -0.957031 2.550781 -1.117188 2.5625 -1.296875 L 1.375 -1.296875 C 1.21875 -1.296875 1.085938 -1.253906 0.984375 -1.171875 C 0.878906 -1.097656 0.828125 -0.988281 0.828125 -0.84375 Z M 0.828125 -0.84375 "/></g></g></g><g fill="#fff2ec" fill-opacity="1"><g transform="translate(30.547032, 6.870071)"><g><path d="M 0.515625 0 L 0.515625 -4.15625 L 1 -4.15625 L 1 0 Z M 0.515625 0 "/></g></g></g><g fill="#fff2ec" fill-opacity="1"><g transform="translate(32.065894, 6.870071)"><g><path d="M 1.78125 0.078125 C 1.488281 0.078125 1.226562 0.015625 1 -0.109375 C 0.78125 -0.242188 0.609375 -0.425781 0.484375 -0.65625 C 0.359375 -0.894531 0.296875 -1.164062 0.296875 -1.46875 C 0.296875 -1.757812 0.359375 -2.019531 0.484375 -2.25 C 0.609375 -2.488281 0.785156 -2.671875 1.015625 -2.796875 C 1.242188 -2.929688 1.503906 -3 1.796875 -3 C 2.109375 -3 2.378906 -2.921875 2.609375 -2.765625 C 2.835938 -2.617188 3.007812 -2.414062 3.125 -2.15625 C 3.25 -1.90625 3.304688 -1.609375 3.296875 -1.265625 L 0.765625 -1.265625 C 0.804688 -0.992188 0.914062 -0.773438 1.09375 -0.609375 C 1.28125 -0.453125 1.515625 -0.375 1.796875 -0.375 C 1.984375 -0.375 2.15625 -0.414062 2.3125 -0.5 C 2.46875 -0.582031 2.59375 -0.695312 2.6875 -0.84375 L 3.21875 -0.84375 C 3.101562 -0.5625 2.914062 -0.335938 2.65625 -0.171875 C 2.40625 -0.00390625 2.113281 0.078125 1.78125 0.078125 Z M 0.78125 -1.6875 L 2.828125 -1.6875 C 2.773438 -1.957031 2.65625 -2.164062 2.46875 -2.3125 C 2.28125 -2.46875 2.054688 -2.546875 1.796875 -2.546875 C 1.523438 -2.546875 1.296875 -2.46875 1.109375 -2.3125 C 0.929688 -2.15625 0.820312 -1.945312 0.78125 -1.6875 Z M 0.78125 -1.6875 "/></g></g></g><g fill="#fff2ec" fill-opacity="1"><g transform="translate(35.643653, 6.870071)"><g><path d="M 0.515625 0 L 0.515625 -2.921875 L 0.90625 -2.921875 L 0.96875 -2.40625 C 1.070312 -2.582031 1.203125 -2.710938 1.359375 -2.796875 C 1.515625 -2.878906 1.71875 -2.921875 1.96875 -2.921875 L 2.234375 -2.921875 L 2.234375 -2.484375 L 1.9375 -2.484375 C 1.757812 -2.484375 1.597656 -2.445312 1.453125 -2.375 C 1.316406 -2.300781 1.207031 -2.179688 1.125 -2.015625 C 1.039062 -1.847656 1 -1.628906 1 -1.359375 L 1 0 Z M 0.515625 0 "/></g></g></g><g fill="#fff2ec" fill-opacity="1"><g transform="translate(37.860062, 6.870071)"><g><path d="M 1.84375 0.078125 C 1.539062 0.078125 1.269531 0.0078125 1.03125 -0.125 C 0.800781 -0.257812 0.617188 -0.441406 0.484375 -0.671875 C 0.359375 -0.898438 0.296875 -1.164062 0.296875 -1.46875 C 0.296875 -1.757812 0.359375 -2.019531 0.484375 -2.25 C 0.617188 -2.476562 0.800781 -2.660156 1.03125 -2.796875 C 1.269531 -2.929688 1.539062 -3 1.84375 -3 C 2.144531 -3 2.410156 -2.929688 2.640625 -2.796875 C 2.878906 -2.660156 3.0625 -2.476562 3.1875 -2.25 C 3.320312 -2.019531 3.390625 -1.757812 3.390625 -1.46875 C 3.390625 -1.164062 3.320312 -0.898438 3.1875 -0.671875 C 3.0625 -0.441406 2.878906 -0.257812 2.640625 -0.125 C 2.410156 0.0078125 2.144531 0.078125 1.84375 0.078125 Z M 0.765625 -1.46875 C 0.765625 -1.25 0.8125 -1.054688 0.90625 -0.890625 C 1 -0.734375 1.125 -0.609375 1.28125 -0.515625 C 1.445312 -0.421875 1.632812 -0.375 1.84375 -0.375 C 2.050781 -0.375 2.234375 -0.421875 2.390625 -0.515625 C 2.554688 -0.609375 2.679688 -0.734375 2.765625 -0.890625 C 2.859375 -1.054688 2.90625 -1.25 2.90625 -1.46875 C 2.90625 -1.675781 2.859375 -1.859375 2.765625 -2.015625 C 2.679688 -2.179688 2.554688 -2.3125 2.390625 -2.40625 C 2.234375 -2.5 2.050781 -2.546875 1.84375 -2.546875 C 1.632812 -2.546875 1.445312 -2.5 1.28125 -2.40625 C 1.125 -2.3125 1 -2.179688 0.90625 -2.015625 C 0.8125 -1.859375 0.765625 -1.675781 0.765625 -1.46875 Z M 0.765625 -1.46875 "/></g></g></g><g fill="#fff2ec" fill-opacity="1"><g transform="translate(41.539083, 6.870071)"><g><path d="M 0.515625 0 L 0.515625 -2.921875 L 0.90625 -2.921875 L 0.96875 -2.484375 C 1.09375 -2.660156 1.242188 -2.789062 1.421875 -2.875 C 1.609375 -2.957031 1.796875 -3 1.984375 -3 C 2.378906 -3 2.6875 -2.875 2.90625 -2.625 C 3.125 -2.375 3.234375 -2.039062 3.234375 -1.625 L 3.234375 0 L 2.75 0 L 2.75 -1.578125 C 2.75 -1.878906 2.675781 -2.113281 2.53125 -2.28125 C 2.382812 -2.457031 2.179688 -2.546875 1.921875 -2.546875 C 1.742188 -2.546875 1.582031 -2.5 1.4375 -2.40625 C 1.300781 -2.320312 1.191406 -2.195312 1.109375 -2.03125 C 1.035156 -1.875 1 -1.6875 1 -1.46875 L 1 0 Z M 0.515625 0 "/></g></g></g></g></g><path stroke-linecap="butt" transform="matrix(0.749609, -0.00617022, 0.00617022, 0.749609, 469.385404, 291.434503)" fill="none" stroke-linejoin="miter" d="M -0.00126077 0.999299 L 220.942135 0.999282 " stroke="#ffffff" stroke-width="2" stroke-opacity="1" stroke-miterlimit="4"/><g transform="matrix(1, 0, 0, 1, 515, 265)"><g clip-path="url(#4f0b11a1b7)"><g fill="#fff2ec" fill-opacity="1"><g transform="translate(0.789782, 17.666377)"><g><path d="M 6.953125 0 L 1.65625 0 L 1.65625 -16.0625 L 5.921875 -16.0625 C 7.222656 -16.0625 8.332031 -15.953125 9.25 -15.734375 C 10.175781 -15.515625 10.878906 -15.125 11.359375 -14.5625 C 11.847656 -14 12.09375 -13.1875 12.09375 -12.125 C 12.09375 -11.34375 11.941406 -10.707031 11.640625 -10.21875 C 11.335938 -9.738281 10.941406 -9.378906 10.453125 -9.140625 C 9.972656 -8.910156 9.453125 -8.769531 8.890625 -8.71875 L 8.890625 -8.171875 C 9.703125 -8.160156 10.441406 -8.03125 11.109375 -7.78125 C 11.785156 -7.53125 12.316406 -7.117188 12.703125 -6.546875 C 13.085938 -5.972656 13.28125 -5.210938 13.28125 -4.265625 C 13.28125 -3.179688 13.019531 -2.328125 12.5 -1.703125 C 11.988281 -1.085938 11.257812 -0.648438 10.3125 -0.390625 C 9.375 -0.128906 8.253906 0 6.953125 0 Z M 3.53125 -14.46875 L 3.53125 -9.15625 L 5.984375 -9.15625 C 6.867188 -9.15625 7.625 -9.21875 8.25 -9.34375 C 8.882812 -9.476562 9.375 -9.734375 9.71875 -10.109375 C 10.0625 -10.492188 10.234375 -11.066406 10.234375 -11.828125 C 10.234375 -12.660156 10.0625 -13.257812 9.71875 -13.625 C 9.375 -13.988281 8.882812 -14.21875 8.25 -14.3125 C 7.625 -14.414062 6.867188 -14.46875 5.984375 -14.46875 Z M 3.53125 -7.5625 L 3.53125 -1.59375 L 7.015625 -1.59375 C 7.929688 -1.59375 8.71875 -1.664062 9.375 -1.8125 C 10.03125 -1.957031 10.53125 -2.242188 10.875 -2.671875 C 11.226562 -3.109375 11.40625 -3.742188 11.40625 -4.578125 C 11.40625 -5.742188 11.015625 -6.53125 10.234375 -6.9375 C 9.453125 -7.351562 8.378906 -7.5625 7.015625 -7.5625 Z M 3.53125 -7.5625 "/></g></g></g><g fill="#fff2ec" fill-opacity="1"><g transform="translate(15.000708, 17.666377)"><g><path d="M 3.53125 0 L 1.65625 0 L 1.65625 -9.984375 C 1.65625 -11.054688 2.179688 -11.570312 3.234375 -11.53125 L 9.515625 -11.328125 L 9.515625 -9.734375 L 3.53125 -9.9375 Z M 3.53125 0 "/></g></g></g><g fill="#fff2ec" fill-opacity="1"><g transform="translate(24.246853, 17.666377)"><g><path d="M 1.203125 -5.8125 C 1.203125 -7.019531 1.4375 -8.050781 1.90625 -8.90625 C 2.382812 -9.769531 3.035156 -10.425781 3.859375 -10.875 C 4.691406 -11.320312 5.640625 -11.546875 6.703125 -11.546875 C 8.296875 -11.546875 9.570312 -11.0625 10.53125 -10.09375 C 11.5 -9.132812 11.984375 -7.78125 11.984375 -6.03125 L 11.984375 -5.3125 L 3.03125 -5.3125 C 3.070312 -4.59375 3.222656 -3.929688 3.484375 -3.328125 C 3.742188 -2.722656 4.15625 -2.238281 4.71875 -1.875 C 5.289062 -1.507812 6.039062 -1.328125 6.96875 -1.328125 C 7.914062 -1.328125 8.691406 -1.550781 9.296875 -2 C 9.898438 -2.445312 10.300781 -3.101562 10.5 -3.96875 L 12.375 -3.96875 C 12.257812 -3.519531 12.082031 -3.050781 11.84375 -2.5625 C 11.601562 -2.082031 11.273438 -1.628906 10.859375 -1.203125 C 10.441406 -0.773438 9.910156 -0.425781 9.265625 -0.15625 C 8.628906 0.101562 7.863281 0.234375 6.96875 0.234375 C 5.613281 0.234375 4.507812 -0.0390625 3.65625 -0.59375 C 2.8125 -1.15625 2.191406 -1.894531 1.796875 -2.8125 C 1.398438 -3.726562 1.203125 -4.726562 1.203125 -5.8125 Z M 3.03125 -6.71875 L 10.15625 -6.71875 C 10.15625 -7.632812 9.859375 -8.40625 9.265625 -9.03125 C 8.679688 -9.664062 7.828125 -9.984375 6.703125 -9.984375 C 5.585938 -9.984375 4.695312 -9.664062 4.03125 -9.03125 C 3.363281 -8.40625 3.03125 -7.632812 3.03125 -6.71875 Z M 3.03125 -6.71875 "/></g></g></g><g fill="#fff2ec" fill-opacity="1"><g transform="translate(36.909089, 17.666377)"><g><path d="M 4.984375 -13.125 C 4.515625 -13.125 4.125 -13.273438 3.8125 -13.578125 C 3.5 -13.878906 3.34375 -14.257812 3.34375 -14.71875 C 3.34375 -15.15625 3.5 -15.523438 3.8125 -15.828125 C 4.125 -16.128906 4.515625 -16.28125 4.984375 -16.28125 C 5.441406 -16.28125 5.828125 -16.128906 6.140625 -15.828125 C 6.460938 -15.523438 6.625 -15.15625 6.625 -14.71875 C 6.625 -14.257812 6.460938 -13.878906 6.140625 -13.578125 C 5.828125 -13.273438 5.441406 -13.125 4.984375 -13.125 Z M 9.34375 0 L 1.203125 0 L 1.203125 -1.59375 L 4.390625 -1.59375 L 4.390625 -9.9375 L 2.046875 -9.734375 L 2.046875 -11.328125 L 4.671875 -11.546875 C 5.203125 -11.597656 5.582031 -11.492188 5.8125 -11.234375 C 6.039062 -10.972656 6.15625 -10.625 6.15625 -10.1875 L 6.15625 -1.59375 L 9.34375 -1.59375 Z M 9.34375 0 "/></g></g></g><g clip-path="url(#4560bfce08)"><g fill="#fff2ec" fill-opacity="1"><g transform="translate(46.997984, 17.666377)"><g><path d="M 9.265625 -15.15625 L 7.21875 -15.15625 C 6.507812 -15.15625 6.015625 -14.984375 5.734375 -14.640625 C 5.460938 -14.296875 5.328125 -13.753906 5.328125 -13.015625 L 5.328125 -11.328125 L 8.640625 -11.328125 L 8.640625 -9.734375 L 5.328125 -9.734375 L 5.328125 -1.59375 L 8.640625 -1.59375 L 8.640625 0 L 0.984375 0 L 0.984375 -1.59375 L 3.484375 -1.59375 L 3.484375 -9.734375 L 0.984375 -9.734375 L 0.984375 -11.328125 L 3.484375 -11.328125 L 3.484375 -13.046875 C 3.484375 -14.171875 3.78125 -15.066406 4.375 -15.734375 C 4.976562 -16.410156 5.957031 -16.75 7.3125 -16.75 L 9.265625 -16.75 Z M 9.265625 -15.15625 "/></g></g></g></g><g fill="#fff2ec" fill-opacity="1"><g transform="translate(56.790816, 17.666377)"><g><path d="M 11.59375 0 L 1.203125 0 L 1.203125 -3.390625 L 10.6875 -9.484375 L 10.6875 -10.03125 L 9.765625 -9.734375 L 1.203125 -9.734375 L 1.203125 -11.328125 L 11.59375 -11.328125 L 11.59375 -7.921875 L 2.125 -1.84375 L 2.125 -1.296875 L 3.03125 -1.59375 L 11.59375 -1.59375 Z M 11.59375 0 "/></g></g></g></g></g></svg>